<svg xmlns="http://www.w3.org/2000/svg" viewBox="0 0 128 128" fill="none">
  <rect width="128" height="128" rx="32" fill="#FFF1F1"/>
  <path d="M64 24C52.4 40.8 36 53.4 36 73.6C36 89.9 49.4 103 64 103C78.6 103 92 89.9 92 73.6C92 53.4 75.6 40.8 64 24Z" fill="#FF6B6B"/>
  <path d="M78 63.5H69V54.5C69 51.5 66.5 49 63.5 49C60.5 49 58 51.5 58 54.5V63.5H49C46 63.5 43.5 66 43.5 69C43.5 72 46 74.5 49 74.5H58V83.5C58 86.5 60.5 89 63.5 89C66.5 89 69 86.5 69 83.5V74.5H78C81 74.5 83.5 72 83.5 69C83.5 66 81 63.5 78 63.5Z" fill="#FFFFFF"/>
</svg>
